<?xml version="1.0" standalone="no"?>
<!DOCTYPE svg PUBLIC "-//W3C//DTD SVG 20010904//EN"
 "http://www.w3.org/TR/2001/REC-SVG-20010904/DTD/svg10.dtd">
<svg version="1.0" xmlns="http://www.w3.org/2000/svg"
 width="1000.000000pt" height="1000.000000pt" viewBox="0 0 1000.000000 1000.000000"
 preserveAspectRatio="xMidYMid meet">
<metadata>
Created by potrace 1.14, written by Peter Selinger 2001-2017
</metadata>
<g transform="translate(0.000000,1000.000000) scale(0.100000,-0.100000)"
fill="#000000" stroke="none">
<path d="M4719 9990 c-1071 -58 -2080 -457 -2929 -1158 -148 -122 -499 -473
-622 -622 -259 -313 -450 -603 -628 -955 -194 -382 -332 -766 -419 -1163 -317
-1447 4 -2934 888 -4107 270 -358 626 -714 986 -985 605 -455 1315 -770 2063
-915 488 -94 1064 -112 1567 -49 1316 163 2504 841 3331 1899 113 146 306 435
400 601 335 594 545 1251 619 1944 22 204 30 637 16 845 -98 1392 -733 2636
-1801 3524 -967 805 -2199 1209 -3471 1141z m1442 -930 c249 -82 359 -162 583
-423 70 -82 166 -221 166 -241 0 -6 -6 -2 -12 9 -79 143 -334 428 -458 512
-87 59 -272 138 -394 167 -29 7 -29 7 13 -36 74 -73 188 -250 205 -318 4 -14
-15 16 -41 65 -65 121 -105 178 -180 253 -61 62 -62 63 -30 57 17 -4 84 -24
148 -45z m-2041 -14 c123 -36 307 -109 410 -161 102 -53 160 -104 160 -141 l0
-26 88 9 c114 11 314 9 336 -4 11 -6 -52 -10 -191 -11 -114 -2 -209 -5 -212
-7 -2 -3 27 -5 65 -5 108 0 109 -9 5 -81 -50 -35 -115 -79 -143 -96 -29 -18
-49 -33 -45 -33 16 0 73 34 143 86 82 61 184 124 199 124 6 -1 -2 -8 -17 -16
-18 -9 -28 -23 -28 -37 0 -12 -7 -35 -15 -51 -9 -16 -14 -30 -12 -32 1 -2 43
21 92 50 90 52 164 86 188 86 6 0 -13 -11 -45 -24 -31 -13 -93 -44 -137 -70
-44 -26 -87 -49 -95 -50 -8 -1 -36 -22 -63 -47 -90 -84 -112 -92 -253 -100
-69 -4 -133 -10 -142 -14 -34 -14 -17 11 95 134 70 78 128 133 156 148 45 23
43 31 -3 13 -14 -5 -47 -12 -73 -15 -26 -3 -59 -7 -73 -9 -14 -2 -45 -7 -70
-10 -36 -5 -49 -13 -67 -39 -12 -19 -20 -44 -18 -62 1 -16 0 -20 -2 -7 -6 31
-18 28 -71 -18 -51 -45 -250 -175 -257 -168 -3 2 52 42 121 88 118 78 234 172
234 189 0 7 -68 -3 -157 -23 -50 -11 -39 8 12 23 25 7 42 17 39 22 -3 5 15 9
40 9 26 0 90 6 144 14 53 8 126 18 162 22 51 6 60 9 40 15 -24 7 -24 7 -2 8
35 2 27 34 -18 75 -56 50 -220 127 -417 194 l-168 57 -175 0 c-154 0 -291 -14
-324 -33 -8 -4 159 -71 180 -72 7 0 36 -13 65 -28 30 -15 78 -38 107 -50 50
-20 53 -23 50 -53 -3 -33 1 -37 122 -94 32 -16 95 -92 112 -136 8 -20 -15 -28
-27 -9 -12 20 -104 11 -156 -16 l-51 -25 -35 27 c-42 32 -129 57 -152 44 -12
-7 -7 -9 19 -10 83 0 151 -44 190 -121 34 -66 53 -242 28 -267 -18 -18 -69
-14 -113 9 l-40 20 -55 -58 c-30 -32 -46 -47 -35 -33 11 14 35 41 53 62 l34
36 -72 39 c-99 53 -160 100 -176 137 -7 17 -13 24 -14 15 0 -9 9 -28 20 -42
l20 -26 -44 -32 c-46 -32 -76 -71 -115 -147 -24 -47 -49 -54 -90 -26 -28 20
-60 88 -61 127 0 32 -1 32 -69 7 -91 -35 -212 -60 -291 -60 -62 0 -94 7 -190
41 -63 22 -163 58 -223 78 l-107 38 90 41 c200 92 378 142 506 142 l74 0 0
-51 c0 -51 0 -51 28 -43 15 4 47 11 72 15 l45 8 -50 -3 c-27 -2 -58 -7 -67
-11 -16 -6 -18 -1 -18 39 0 86 48 154 139 198 93 45 188 32 270 -38 31 -26 81
-112 81 -140 0 -14 -71 -54 -115 -64 -24 -7 -26 -8 -7 -9 12 -1 45 10 72 24
28 14 50 21 50 16 0 -6 -4 -13 -10 -16 -5 -3 -10 -14 -10 -23 0 -13 3 -12 16
6 8 12 26 22 39 22 13 0 30 7 37 16 7 9 23 27 35 40 12 13 18 24 13 24 -5 0
-21 -16 -36 -35 -37 -49 -59 -46 -73 9 -6 25 -12 60 -12 78 -2 33 -2 33 -6 4
l-5 -29 -22 39 c-23 41 -108 100 -159 111 -31 6 -77 59 -101 117 -21 50 -20
63 4 71 11 4 36 22 55 42 29 30 39 34 62 29 41 -10 52 -10 113 8 184 51 420
57 570 12z m570 3 c44 -8 100 -10 193 -4 73 5 159 8 193 7 125 -2 280 -77 402
-197 98 -96 96 -112 -10 -69 -46 18 -103 36 -128 39 l-45 5 50 -14 c77 -22
174 -60 245 -96 81 -41 108 -45 130 -18 24 30 76 17 140 -33 28 -22 54 -38 59
-35 7 5 230 -52 241 -61 12 -10 -30 -23 -78 -23 l-53 0 34 -42 c19 -24 37 -52
40 -63 5 -20 5 -20 6 1 0 11 -5 29 -13 39 -13 18 -10 23 46 58 50 32 58 41 53
60 -4 15 -3 18 3 9 7 -10 16 -4 39 25 16 21 34 45 39 54 14 25 71 5 94 -34 49
-80 35 -189 -32 -250 -22 -20 -39 -39 -37 -40 11 -8 147 -40 164 -39 11 0 63
4 116 8 l97 7 -58 29 c-32 16 -93 44 -136 63 -43 18 -80 39 -82 45 -3 9 1 9
16 1 35 -19 48 -12 22 12 -33 28 -16 19 35 -20 22 -17 83 -51 135 -74 52 -24
144 -70 203 -102 60 -32 111 -56 114 -53 9 9 -165 176 -277 265 -58 46 -122
100 -143 120 -37 34 -114 128 -132 161 -12 23 5 3 65 -73 35 -45 97 -102 184
-170 72 -56 164 -134 204 -173 41 -39 75 -66 77 -60 2 6 6 25 8 41 4 27 4 26
6 -7 0 -20 -4 -40 -9 -43 -6 -4 -3 -17 10 -35 11 -15 20 -32 21 -37 0 -4 54
-42 120 -83 66 -41 132 -88 147 -104 17 -18 -8 -5 -68 36 -52 36 -115 76 -140
89 -25 13 -58 33 -75 45 -54 38 -58 39 -45 13 12 -23 12 -23 -16 3 -53 49
-151 90 -224 96 l-67 4 -6 -48 c-3 -27 -2 -52 1 -56 7 -6 148 -22 291 -33 59
-5 98 -15 56 -15 -10 0 -24 -8 -31 -17 -13 -17 -14 -17 -8 0 5 14 0 17 -37 18
-24 0 -98 8 -163 18 l-119 18 -42 -44 c-36 -37 -40 -45 -26 -53 9 -5 12 -9 6
-10 -5 0 -16 4 -23 9 -9 5 -33 1 -63 -10 -138 -53 -266 11 -315 158 l-23 67
61 21 c34 11 54 21 45 23 -8 2 -29 -4 -46 -12 -43 -22 -55 -20 -37 6 9 12 16
29 16 38 0 8 -6 4 -13 -10 -9 -18 -21 -25 -44 -26 -22 -1 -45 -13 -73 -37 -22
-21 -34 -37 -26 -37 8 0 26 14 39 30 31 36 62 39 71 8 3 -13 7 -59 8 -103 1
-57 3 -66 5 -31 l4 49 21 -42 c22 -45 90 -103 143 -122 24 -9 39 -26 59 -65
15 -29 30 -69 33 -88 5 -32 3 -37 -22 -46 -15 -6 -41 -22 -57 -35 -34 -29 -59
-31 -92 -10 -55 37 -123 185 -106 231 6 14 10 35 9 47 -1 13 -5 7 -10 -16 -14
-60 -37 -95 -81 -127 -52 -38 -78 -38 -130 0 -22 17 -45 30 -49 30 -18 0 -99
62 -99 76 0 55 85 145 176 186 l49 22 -42 7 c-55 10 -81 24 -120 67 -43 45
-63 116 -63 217 0 58 -4 82 -12 82 -67 5 -168 17 -168 21 0 3 8 11 18 18 13
11 8 10 -20 -1 -73 -29 -237 -14 -453 42 -128 33 -210 76 -307 160 -85 74
-173 171 -147 161 10 -4 45 -12 79 -19z m-555 -170 c96 -39 234 -86 307 -104
145 -37 152 -47 11 -15 -124 29 -228 64 -373 127 -119 52 -141 63 -127 63 4 0
86 -32 182 -71z m1512 37 c22 -8 71 -17 109 -20 103 -10 156 -17 152 -21 -6
-6 -210 15 -247 25 -19 5 -37 8 -39 5 -3 -2 31 -43 74 -91 44 -48 74 -85 67
-83 -19 6 -163 170 -163 185 0 17 -1 17 47 0z m323 -66 c22 -11 40 -23 40 -25
0 -5 -79 32 -89 41 -11 10 14 2 49 -16z m71 -47 c13 -16 12 -17 -3 -4 -10 7
-18 15 -18 17 0 8 8 3 21 -13z m951 -120 c31 -29 93 -77 140 -107 173 -113
259 -249 298 -475 11 -62 7 -131 -8 -131 -4 0 -27 36 -51 80 -29 52 -81 119
-150 194 -58 63 -108 113 -110 111 -2 -3 38 -48 89 -102 51 -54 111 -125 132
-158 40 -61 132 -244 126 -250 -2 -2 -29 19 -61 46 -61 51 -60 69 1 23 l34
-27 -16 25 c-9 14 -34 30 -59 38 -74 22 -299 266 -393 425 -35 60 -73 220 -80
339 l-7 101 30 -40 c17 -22 55 -63 85 -92z m-1122 80 c0 -7 -39 17 -46 28 -3
6 5 3 20 -6 14 -10 26 -19 26 -22z m221 0 c13 -16 12 -17 -3 -4 -10 7 -18 15
-18 17 0 8 8 3 21 -13z m22 -125 c37 -21 67 -43 67 -48 0 -5 -44 18 -99 50
-54 32 -122 70 -150 84 -28 15 -51 29 -51 31 0 7 148 -68 233 -117z m-1490 95
c-7 -2 -21 -2 -30 0 -10 3 -4 5 12 5 17 0 24 -2 18 -5z m-466 -39 c-3 -3 -12
-4 -19 -1 -8 3 -5 6 6 6 11 1 17 -2 13 -5z m40 -10 c-3 -3 -12 -4 -19 -1 -8 3
-5 6 6 6 11 1 17 -2 13 -5z m46 -11 c-7 -2 -19 -2 -25 0 -7 3 -2 5 12 5 14 0
19 -2 13 -5z m1945 -38 c-3 -3 -9 2 -12 12 -6 14 -5 15 5 6 7 -7 10 -15 7 -18z
m-611 -20 c-151 -18 -246 -39 -419 -91 -82 -25 -152 -44 -154 -41 -5 5 278 94
346 108 94 20 223 37 280 37 40 0 25 -4 -53 -13z m-1555 -68 c-12 -13 -20 -26
-17 -29 3 -3 -1 -8 -9 -11 -9 -4 -19 -1 -22 5 -4 7 -2 14 4 16 6 2 22 12 34
22 32 26 36 25 10 -3z m1668 -2 c0 -11 -120 -64 -210 -93 -334 -108 -499 -124
-720 -68 -116 29 -99 33 30 6 153 -32 292 -28 471 14 165 39 306 84 377 120
53 28 52 28 52 21z m-1375 -100 c-47 -69 -259 -274 -367 -355 -97 -73 -166
-109 -275 -144 -101 -31 -278 -68 -310 -64 -21 3 -15 9 41 49 74 54 150 142
242 282 35 53 66 97 69 97 7 0 7 0 -79 -130 -42 -64 -105 -141 -160 -196 l-91
-91 75 14 c122 22 250 61 335 103 138 66 476 362 530 463 10 20 21 34 24 32 2
-3 -13 -30 -34 -60z m672 29 c-3 -3 -12 -4 -19 -1 -8 3 -5 6 6 6 11 1 17 -2
13 -5z m534 -110 c29 -26 88 -28 154 -6 l60 21 35 -33 c19 -19 52 -39 74 -46
l38 -12 -42 -24 c-23 -13 -56 -35 -72 -49 -25 -21 -40 -25 -95 -25 -62 0 -67
2 -100 36 -32 35 -83 122 -83 144 0 14 11 12 31 -6z m-2211 -89 c0 -8 -18 -24
-40 -35 -22 -11 -40 -23 -40 -25 0 -3 13 1 30 10 16 8 37 15 47 14 10 0 5 -5
-12 -10 -16 -5 -59 -31 -95 -57 -84 -62 -108 -107 -165 -308 -44 -157 -56
-219 -34 -182 5 10 62 52 125 94 76 50 124 89 141 115 24 36 43 55 27 27 -27
-49 -68 -87 -141 -135 -47 -30 -104 -72 -128 -94 -24 -22 -46 -36 -49 -30 -6
9 35 177 74 311 28 92 72 163 125 201 78 56 41 43 -54 -19 -51 -33 -104 -77
-119 -98 -16 -22 -46 -52 -68 -69 -60 -45 -64 -51 -51 -64 8 -8 8 -11 0 -11
-6 0 -14 -12 -17 -26 -4 -15 -9 -24 -12 -22 -2 3 0 17 5 31 5 14 7 27 4 30
-13 14 -126 -73 -168 -129 -102 -136 -253 -417 -279 -519 -21 -83 -36 -222
-36 -335 l0 -95 24 42 c51 89 94 143 211 263 66 69 131 139 144 155 18 24 20
25 10 5 -7 -14 -67 -82 -135 -151 -128 -133 -188 -213 -232 -307 -34 -73 -36
-62 -29 163 6 206 23 282 102 440 53 108 177 309 218 352 11 13 18 25 15 28
-8 9 -104 -70 -214 -177 -55 -54 -104 -95 -108 -91 -4 4 -4 0 -1 -9 19 -48
-106 -218 -188 -257 -23 -11 -80 -25 -127 -31 -46 -6 -99 -18 -117 -25 -18 -8
-33 -10 -33 -5 0 15 151 233 189 273 20 21 47 45 61 52 37 19 144 37 169 27
19 -7 10 -18 -91 -109 -62 -57 -122 -110 -133 -118 -19 -16 -19 -16 3 -5 13 6
67 52 120 101 53 50 123 108 156 130 32 21 55 39 50 39 -5 0 21 30 56 66 53
54 59 63 33 50 -60 -30 -141 -57 -218 -71 -81 -16 -365 -19 -420 -5 -16 4 -22
8 -12 9 26 2 125 52 194 99 32 22 108 87 170 144 74 69 135 117 181 141 39 21
74 37 78 37 5 -1 -18 -15 -51 -32 -72 -37 -126 -78 -225 -174 -88 -86 -160
-141 -236 -181 -29 -15 -54 -32 -54 -37 0 -17 339 1 420 22 100 27 247 95 290
136 19 18 53 46 75 61 22 16 54 41 70 56 17 15 80 62 140 104 61 43 109 81
108 85 -1 4 9 11 24 15 22 5 148 75 218 121 26 17 25 17 25 -1z m7 -112 c-9
-15 -50 -78 -94 -140 -43 -61 -84 -120 -91 -130 -46 -66 22 47 94 157 46 71
87 137 91 147 4 9 8 12 10 6 3 -7 -2 -24 -10 -40z m4348 -100 c100 -122 133
-174 146 -232 9 -41 -6 -145 -27 -180 -26 -46 -8 -92 76 -186 62 -71 76 -82
83 -68 6 14 6 13 3 -4 -2 -13 0 -23 5 -23 5 0 9 -5 9 -12 0 -6 18 -35 40 -64
43 -57 52 -78 21 -50 -11 10 -22 13 -25 8 -3 -6 1 -12 9 -16 8 -3 15 -10 15
-15 0 -5 -17 0 -37 10 -43 22 -64 24 -82 7 -20 -21 -209 -15 -327 10 -158 34
-257 66 -320 103 -51 30 -279 237 -271 245 2 2 35 -3 73 -11 84 -18 174 -19
299 -3 142 17 250 -11 388 -101 85 -56 187 -152 187 -176 0 -20 3 -20 -117 24
-45 17 -106 33 -135 35 -49 5 -48 5 15 -9 37 -7 118 -34 179 -59 106 -43 128
-47 128 -25 0 6 -4 8 -9 5 -5 -3 -13 6 -19 22 -16 47 -152 200 -330 374 -95
92 -172 170 -172 175 0 4 23 -15 51 -42 29 -28 49 -42 45 -32 -17 48 -15 48
11 3 15 -28 56 -73 90 -100 34 -28 62 -56 62 -62 1 -6 11 -19 22 -30 22 -19
22 -19 14 6 -4 14 -12 27 -16 28 -5 2 -7 8 -4 12 3 5 -20 64 -51 132 -78 172
-76 177 5 15 66 -131 70 -137 82 -115 8 13 13 59 14 109 0 81 -2 89 -35 142
-19 31 -71 100 -115 154 l-80 98 -7 -75 c-4 -41 -12 -95 -17 -120 -9 -41 -10
-39 -3 15 4 33 7 90 7 128 0 45 4 67 12 67 7 0 55 -53 108 -117z m-4747 100
c-10 -2 -28 -2 -40 0 -13 2 -5 4 17 4 22 1 32 -1 23 -4z m94 -17 c15 -11 8
-15 -55 -35 -102 -33 -282 -107 -347 -143 -30 -17 -107 -62 -171 -99 -157 -93
-180 -98 -39 -9 202 127 322 184 525 250 82 26 84 28 65 40 -8 6 -10 10 -5 10
6 -1 18 -6 27 -14z m-335 -2 c-3 -3 -12 -4 -19 -1 -8 3 -5 6 6 6 11 1 17 -2
13 -5z m4178 -4 c-3 -5 -12 -10 -18 -10 -7 0 -6 4 3 10 19 12 23 12 15 0z
m-4218 -6 c-3 -3 -12 -4 -19 -1 -8 3 -5 6 6 6 11 1 17 -2 13 -5z m5434 -224
c78 -107 119 -183 149 -277 45 -140 81 -349 85 -493 l4 -125 -8 105 c-10 125
-24 212 -61 380 -36 160 -64 230 -144 349 -58 86 -174 226 -181 219 -2 -2 3
-30 11 -63 15 -64 17 -236 5 -430 -5 -79 -7 -34 -7 155 1 247 -1 269 -21 330
l-22 65 73 -78 c41 -43 93 -104 117 -137z m-1534 194 c-3 -3 -12 -4 -19 -1 -8
3 -5 6 6 6 11 1 17 -2 13 -5z m101 -11 c-16 -2 -40 -2 -55 0 -16 2 -3 4 27 4
30 0 43 -2 28 -4z m291 -63 c111 -27 335 -111 445 -168 98 -50 166 -108 166
-140 0 -11 6 -23 13 -25 7 -4 6 -6 -4 -6 -9 -1 -22 -8 -29 -16 -7 -8 -18 -15
-24 -15 -6 0 -3 5 7 11 9 6 15 14 12 20 -4 5 -1 9 4 9 23 0 9 44 -24 75 -82
78 -480 233 -656 257 -95 12 -263 2 -394 -25 l-60 -13 55 -18 c81 -26 193 -88
290 -158 47 -34 117 -79 155 -100 39 -20 66 -38 62 -38 -18 0 -118 56 -192
110 -145 104 -271 167 -390 196 -29 7 -27 8 25 21 194 47 400 56 539 23z m29
-166 c186 -77 228 -91 367 -124 66 -16 111 -29 100 -29 -36 -2 -263 58 -359
94 -97 36 -267 113 -253 114 4 1 69 -24 145 -55z m579 4 c-3 -7 -5 -2 -5 12 0
14 2 19 5 13 2 -7 2 -19 0 -25z m-4720 -114 c-52 -136 -116 -255 -217 -409
-116 -175 -111 -154 10 41 95 151 175 305 212 406 11 32 23 57 25 54 2 -2 -11
-44 -30 -92z m5240 -46 c-3 -8 -6 -5 -6 6 -1 11 2 17 5 13 3 -3 4 -12 1 -19z
m-564 -5 c-7 -2 -21 -2 -30 0 -10 3 -4 5 12 5 17 0 24 -2 18 -5z m597 -158
c31 -204 47 -277 90 -405 21 -63 41 -124 45 -135 5 -15 4 -17 -3 -5 -16 23
-80 214 -103 302 -18 73 -58 326 -59 372 0 45 10 2 30 -129z m-1027 108 c-7
-2 -19 -2 -25 0 -7 3 -2 5 12 5 14 0 19 -2 13 -5z m60 -10 c-7 -2 -21 -2 -30
0 -10 3 -4 5 12 5 17 0 24 -2 18 -5z m-4236 -25 c-3 -8 -6 -5 -6 6 -1 11 2 17
5 13 3 -3 4 -12 1 -19z m4331 15 c-10 -2 -28 -2 -40 0 -13 2 -5 4 17 4 22 1
32 -1 23 -4z m99 1 c-3 -3 -12 -4 -19 -1 -8 3 -5 6 6 6 11 1 17 -2 13 -5z
m620 -206 c-3 -7 -5 -2 -5 12 0 14 2 19 5 13 2 -7 2 -19 0 -25z m-5132 -57
c-21 -43 -29 -39 -8 4 9 19 18 33 21 31 2 -2 -4 -18 -13 -35z m-589 -253 c-4
-95 -11 -193 -16 -218 -8 -40 -8 -38 -4 20 4 54 14 316 14 358 0 6 3 12 7 12
3 0 3 -78 -1 -172z m-88 120 c-92 -121 -269 -399 -318 -500 l-21 -43 37 40
c27 29 31 32 16 10 -11 -16 -30 -39 -42 -50 -39 -35 -145 -272 -209 -467 -16
-47 -26 -65 -36 -62 -11 5 -7 25 19 100 18 53 30 92 26 87 -8 -8 -94 -114
-119 -145 -12 -16 -10 -19 15 -28 90 -34 124 -54 124 -74 -1 -60 -74 -154
-157 -203 -24 -14 -43 -26 -43 -26 0 -1 23 -3 50 -4 97 -2 177 -82 200 -196 7
-36 8 -38 9 -12 0 17 -10 54 -24 83 -14 30 -25 56 -25 59 0 11 114 53 145 53
49 0 99 -54 115 -123 l8 -32 1 33 c2 78 105 223 171 243 39 12 40 11 83 -28
24 -23 54 -44 66 -48 37 -11 21 -75 -42 -167 -25 -36 -39 -47 -68 -52 -54 -9
-153 -77 -183 -128 l-26 -43 -1 40 c-1 29 -4 21 -10 -30 -5 -38 -13 -82 -19
-98 -7 -23 -5 -31 16 -52 27 -27 34 -12 7 17 -25 27 4 24 58 -7 24 -14 53 -25
64 -24 12 0 6 5 -16 13 -19 7 -46 20 -60 29 -13 9 -32 17 -42 17 -21 0 -19 13
18 95 56 126 200 191 326 150 136 -45 209 -131 209 -245 0 -27 -3 -50 -6 -50
-4 0 -24 5 -46 12 -30 9 -61 9 -136 -1 -142 -19 -137 -16 -93 -60 49 -49 66
-112 52 -188 -18 -94 -53 -140 -114 -150 -34 -5 -35 -4 -68 58 -20 39 -61 91
-102 131 l-68 68 20 26 c12 15 21 34 21 43 -1 9 -7 2 -15 -16 -16 -37 -97
-103 -174 -142 -31 -15 -85 -47 -120 -69 -53 -34 -73 -42 -112 -42 -38 0 -51
5 -63 22 -12 17 -16 18 -16 6 0 -50 119 -52 183 -4 77 59 38 0 -48 -73 -22
-18 -35 -31 -29 -28 6 4 27 -28 48 -73 29 -60 55 -95 110 -148 39 -38 79 -73
88 -78 15 -8 16 -15 8 -45 -19 -69 -90 -109 -193 -109 -35 0 -85 6 -112 14
l-47 15 6 -31 c3 -17 6 -44 6 -60 0 -22 7 -33 31 -46 45 -24 124 -98 235 -220
l98 -107 -149 145 c-147 142 -150 144 -153 114 -4 -39 30 -130 69 -183 16 -23
57 -60 91 -82 72 -46 322 -175 316 -162 -2 4 -19 39 -37 76 -18 37 -31 70 -28
73 2 3 12 -14 21 -38 10 -24 28 -60 42 -80 28 -44 29 -48 9 -48 -30 0 -334
162 -381 203 -59 52 -106 148 -110 227 -2 38 -8 58 -20 67 -10 7 -19 11 -21 9
-6 -6 54 -259 99 -416 43 -153 102 -309 188 -500 29 -63 53 -122 54 -130 1 -8
23 -48 49 -87 71 -108 126 -229 144 -320 l17 -81 -32 -194 c-18 -107 -32 -209
-32 -227 0 -19 -4 -30 -10 -26 -21 13 -191 279 -230 359 -65 134 -94 331 -70
474 16 94 70 176 83 125 3 -10 5 15 6 54 1 47 -3 72 -10 70 -14 -3 -145 314
-153 373 -1 8 -5 22 -9 30 -52 128 -141 531 -135 614 1 23 -2 41 -9 43 -16 6
-36 -34 -30 -58 3 -10 1 -17 -4 -14 -14 9 -38 -90 -74 -310 -19 -114 -38 -211
-41 -214 -3 -3 -4 8 -1 24 4 17 16 100 28 185 12 85 32 193 45 240 12 47 20
87 18 89 -10 11 -56 -22 -84 -60 -16 -23 -30 -37 -30 -31 0 20 86 102 106 102
10 0 26 12 34 27 15 26 14 30 -18 77 -22 33 -31 57 -28 70 3 12 8 39 11 61 4
24 -2 12 -14 -30 -10 -38 -37 -117 -60 -175 -33 -86 -41 -117 -41 -173 l0 -68
-38 7 c-131 23 -218 110 -252 252 -14 60 -17 155 -5 192 6 22 5 23 -6 9 -21
-25 -136 -67 -206 -75 l-62 -6 -12 46 c-6 26 -24 64 -40 86 -33 46 -36 74 -11
112 36 55 110 97 228 129 61 17 82 19 102 10 13 -7 27 -10 29 -7 2 2 -5 7 -17
11 -36 12 -100 76 -126 127 -33 66 -32 107 7 144 17 16 40 45 52 64 12 19 41
61 65 93 42 55 62 65 62 29 0 -24 46 -90 67 -95 63 -17 72 -17 78 3 8 26 20
18 56 -38 16 -25 29 -41 29 -35 0 6 -15 34 -34 62 l-34 50 27 43 c37 59 141
149 141 124 0 -3 -22 -35 -50 -71 -27 -36 -50 -74 -50 -83 1 -10 6 -4 14 13 7
17 32 51 56 78 l42 47 32 -18 c142 -83 196 -117 196 -123 0 -4 -14 -17 -31
-29 l-30 -22 -61 27 c-82 37 -126 42 -169 19 -19 -10 -37 -17 -41 -16 -5 1 -8
-2 -8 -8 0 -14 4 -13 45 11 27 16 46 20 77 16 59 -8 63 -19 18 -53 -51 -37
-117 -163 -101 -191 9 -16 10 -14 11 9 0 49 49 134 97 172 26 20 50 36 55 36
11 0 68 -29 68 -34 0 -2 -11 -26 -25 -53 -13 -26 -27 -68 -30 -93 l-5 -45 13
50 c29 110 99 194 162 196 l30 1 -30 7 c-16 4 -55 23 -85 43 -30 19 -83 50
-118 68 -82 43 -132 98 -132 145 0 36 25 60 53 49 8 -3 21 2 28 11 8 10 26 30
41 46 14 16 22 29 17 29 -5 0 -16 -8 -24 -17 -46 -54 -56 -62 -69 -57 -8 3
-20 30 -26 61 -7 34 -15 52 -21 46 -6 -6 -4 -26 5 -51 10 -29 12 -42 4 -42 -6
0 -35 -12 -65 -26 -52 -26 -58 -27 -151 -18 -53 4 -136 8 -185 9 l-87 0 0 40
c0 48 28 112 61 142 34 30 95 60 157 76 l52 13 -29 40 c-16 21 -37 59 -47 83
-17 43 -17 45 1 55 10 6 38 28 62 49 50 42 65 42 118 2 42 -31 105 -141 106
-185 l1 -35 10 35 c5 19 20 49 33 66 13 16 37 60 53 96 17 38 49 86 74 110 40
40 140 98 169 98 7 0 -14 -13 -47 -30 -84 -42 -126 -80 -162 -148 -18 -33 -32
-61 -32 -63 0 -2 17 -4 38 -4 20 -1 44 -4 52 -8 11 -5 37 23 98 103 45 60 87
121 92 135 5 14 23 53 40 87 32 63 33 82 3 56 -10 -9 -56 -35 -103 -58 -129
-64 -248 -145 -319 -218 -62 -63 -63 -64 -56 -31 18 83 88 276 129 356 48 94
122 183 246 299 143 133 309 254 349 254 8 0 -7 -11 -35 -25 -87 -44 -185
-125 -344 -284 -139 -139 -161 -166 -202 -246 -42 -82 -104 -245 -122 -320 -7
-28 -4 -27 51 27 66 64 160 126 282 188 160 80 161 81 319 380 19 36 49 85 66
109 17 24 44 64 59 90 16 25 38 56 50 69 11 12 16 22 11 22 -15 -1 -44 -26
-44 -39 0 -7 -4 -10 -9 -6 -11 6 -142 -140 -239 -265 -36 -47 -77 -98 -91
-114 -27 -30 -168 -139 -205 -158 -31 -16 -9 3 64 54 93 66 123 97 235 241 54
71 127 158 162 194 34 36 60 70 56 76 -3 5 -1 7 5 3 13 -8 81 31 105 61 10 13
25 23 34 23 12 0 10 -7 -9 -32z m37 -12 c-43 -56 -75 -149 -75 -215 0 -52 58
-311 88 -392 l9 -24 7 25 c11 36 109 241 113 236 3 -2 -16 -44 -41 -94 -25
-50 -50 -111 -57 -136 -6 -26 -17 -45 -23 -43 -13 4 -91 272 -107 369 -9 51
-9 78 0 115 15 58 55 140 83 171 31 33 33 27 3 -12z m90 14 c10 -11 16 -20 13
-20 -3 0 -13 9 -23 20 -10 11 -16 20 -13 20 3 0 13 -9 23 -20z m5856 -93 c25
-34 60 -88 78 -120 19 -34 37 -54 43 -50 7 4 9 0 5 -10 -3 -9 -3 -16 1 -14 4
1 8 -1 10 -5 23 -59 38 -87 58 -113 13 -18 24 -39 24 -48 0 -9 4 -18 9 -21 4
-3 11 17 14 45 6 49 90 336 108 372 15 27 26 20 34 -20 4 -21 27 -81 51 -134
24 -53 44 -100 44 -105 -1 -16 -82 159 -100 215 -12 38 -19 48 -23 35 -3 -11
-24 -82 -47 -159 -30 -97 -44 -166 -48 -223 -4 -81 -4 -83 39 -172 67 -136 73
-126 67 103 -2 110 -1 169 3 137 5 -30 9 -117 11 -192 2 -76 5 -138 7 -138 2
0 12 6 21 13 9 6 6 3 -5 -8 -12 -12 -24 -28 -27 -37 -4 -8 14 -73 38 -143 24
-70 43 -130 40 -132 -2 -2 -9 12 -16 31 -6 20 -16 36 -20 36 -5 0 -7 7 -4 15
3 8 -8 45 -25 81 -17 36 -31 74 -31 83 0 9 -15 40 -33 68 -18 29 -42 71 -52
95 -62 146 -73 165 -102 176 -18 6 -36 6 -44 1 -8 -5 -23 -8 -34 -8 -20 1 -18
2 24 15 9 3 -12 20 -50 42 -57 34 -256 167 -269 180 -11 11 48 -23 100 -58 70
-47 226 -140 234 -140 19 0 1 55 -33 101 -46 63 -68 89 -61 74 3 -6 -4 -1 -15
11 -34 37 -100 64 -273 110 -91 24 -170 44 -175 44 -5 0 6 -14 23 -32 17 -17
58 -70 90 -118 33 -48 76 -102 97 -120 21 -18 29 -27 18 -22 -31 16 -89 81
-129 145 -20 32 -55 78 -78 102 -22 25 -38 49 -34 53 4 3 91 -15 194 -42 103
-26 195 -49 204 -49 9 -1 15 -3 13 -5 -4 -4 30 -30 73 -56 18 -11 3 15 -60
106 -60 85 -49 90 13 5z m-6134 47 c-3 -3 -12 -4 -19 -1 -8 3 -5 6 6 6 11 1
17 -2 13 -5z m5945 -337 c51 -30 127 -69 168 -87 87 -38 178 -100 235 -161 25
-27 14 -20 -30 20 -55 50 -101 78 -215 133 -154 74 -251 135 -312 193 -21 20
-38 32 -38 27 0 -47 108 -291 169 -380 82 -121 342 -349 501 -440 57 -33 62
-44 7 -16 -122 63 -361 258 -475 388 -60 68 -142 227 -190 366 -50 146 -50
146 23 74 35 -35 105 -87 157 -117z m378 140 c0 -7 -7 -22 -15 -33 -13 -17
-13 -16 -3 14 13 34 18 40 18 19z m-5973 -69 c-3 -8 -6 -5 -6 6 -1 11 2 17 5
13 3 -3 4 -12 1 -19z m-322 -105 c50 -72 77 -233 79 -453 1 -163 1 -166 -31
-249 -32 -82 -70 -156 -122 -236 l-26 -40 -6 85 c-6 82 -16 116 -101 350 -39
108 -21 281 45 432 13 29 22 58 21 63 -2 6 6 21 17 35 11 14 17 18 13 10 -4
-8 4 -4 19 9 14 12 30 20 35 17 5 -3 13 18 18 47 l8 52 4 -43 c2 -24 14 -59
27 -79z m6592 55 c-3 -7 -5 -2 -5 12 0 14 2 19 5 13 2 -7 2 -19 0 -25z m-6280
0 c-3 -8 -6 -5 -6 6 -1 11 2 17 5 13 3 -3 4 -12 1 -19z m-397 -18 c-6 -11 -13
-20 -16 -20 -2 0 0 9 6 20 6 11 13 20 16 20 2 0 0 -9 -6 -20z m6069 -6 c14
-12 -19 -1 -35 12 -18 14 -18 14 6 3 14 -6 27 -13 29 -15z m618 -41 c-3 -10
-5 -4 -5 12 0 17 2 24 5 18 2 -7 2 -21 0 -30z m-297 -400 c53 -50 127 -130
165 -177 62 -75 71 -82 77 -63 5 17 6 14 5 -11 -1 -30 -28 -54 -44 -38 -4 3 1
6 10 6 10 0 17 4 17 9 0 11 -136 167 -210 241 -30 30 -121 108 -202 172 -80
64 -149 122 -153 128 -17 27 251 -186 335 -267z m75 127 c10 -11 16 -20 13
-20 -3 0 -13 9 -23 20 -10 11 -16 20 -13 20 3 0 13 -9 23 -20z m-6708 -132
c-3 -8 -6 -5 -6 6 -1 11 2 17 5 13 3 -3 4 -12 1 -19z m6931 -308 c0 -8 -6 1
-13 20 -7 19 -13 42 -13 50 0 8 6 -1 13 -20 7 -19 13 -42 13 -50z m-121 24
c-3 -3 -12 -4 -19 -1 -8 3 -5 6 6 6 11 1 17 -2 13 -5z m94 -21 c13 -16 12 -17
-3 -4 -10 7 -18 15 -18 17 0 8 8 3 21 -13z m-4906 -48 c42 -14 97 -39 121 -56
l44 -30 16 38 c9 21 20 48 25 61 13 34 34 21 33 -19 0 -19 -8 -103 -17 -187
-9 -84 -17 -188 -17 -231 0 -63 -3 -80 -16 -85 -28 -11 -34 3 -34 74 0 187
-74 321 -215 387 -54 25 -71 28 -165 28 -99 0 -110 -2 -172 -33 -113 -55 -178
-151 -199 -293 -23 -157 25 -291 137 -382 37 -31 157 -97 327 -183 222 -113
276 -144 321 -188 89 -87 126 -181 126 -326 0 -300 -192 -511 -510 -561 -147
-23 -349 8 -523 81 l-76 32 6 236 c4 199 8 239 21 250 9 6 19 12 23 12 3 0 7
-44 7 -98 1 -111 13 -172 50 -251 68 -146 227 -221 441 -208 163 9 273 74 334
196 93 186 67 409 -60 521 -28 24 -127 81 -247 142 -266 133 -330 171 -397
235 -100 95 -144 208 -142 368 3 249 155 434 403 490 98 22 256 14 355 -20z
m3607 6 c108 -28 173 -58 247 -114 35 -26 65 -47 66 -45 2 2 12 35 22 73 14
50 25 71 38 74 16 3 17 -3 11 -58 -13 -114 -25 -325 -26 -438 0 -106 -1 -113
-20 -113 -17 0 -20 7 -20 40 0 67 -29 191 -61 260 -66 142 -162 229 -304 273
-89 28 -266 30 -364 4 -252 -67 -435 -296 -506 -632 -22 -105 -31 -373 -16
-490 45 -344 185 -579 406 -680 125 -57 259 -76 409 -56 245 33 411 169 496
409 22 59 24 62 41 46 17 -16 17 -19 -12 -98 -121 -333 -474 -510 -875 -441
-183 32 -295 87 -408 201 -180 179 -269 439 -269 779 1 305 74 535 230 720
144 171 318 271 528 305 94 14 298 5 387 -19z m-2300 -11 c186 -69 273 -324
178 -517 -24 -49 -48 -77 -98 -119 -53 -44 -210 -160 -265 -196 -11 -6 87
-130 288 -362 66 -76 132 -153 146 -169 l26 -31 118 240 c178 361 253 464 361
494 92 26 164 -25 138 -97 -9 -27 -11 -28 -77 -24 -57 3 -73 -1 -109 -22 -24
-14 -57 -45 -74 -69 -48 -65 -173 -287 -248 -435 l-66 -133 78 -85 c186 -205
336 -303 490 -321 54 -6 60 -9 52 -24 -10 -18 -161 -50 -236 -50 -100 0 -174
46 -354 218 l-116 110 -34 -55 c-45 -70 -156 -175 -220 -208 -146 -74 -343
-73 -482 2 -61 33 -138 115 -172 181 -73 144 -75 337 -5 475 27 52 148 178
246 254 40 32 73 61 73 66 0 5 -13 27 -28 50 -92 137 -133 246 -139 377 -12
235 108 420 304 470 56 14 160 5 225 -20z m3647 -19 c-2 -6 -10 2 -17 17 -11
25 -11 25 4 10 9 -9 15 -21 13 -27z m-6836 -81 c52 -56 75 -95 64 -107 -3 -3
-16 2 -29 11 -34 24 -86 19 -155 -13 -34 -16 -63 -26 -65 -22 -6 17 -82 61
-104 61 -12 0 -26 5 -29 10 -3 6 -2 10 3 10 5 0 37 25 71 55 61 54 62 55 125
55 l64 0 55 -60z m6884 -112 c-3 -8 -6 -5 -6 6 -1 11 2 17 5 13 3 -3 4 -12 1
-19z m-7410 -56 c-24 -26 -22 -83 4 -111 l21 -23 -23 -16 c-45 -30 -94 -88
-124 -145 -27 -50 -34 -57 -61 -57 -63 0 -110 87 -102 191 4 51 9 64 38 94 30
31 40 35 84 35 33 0 69 9 101 24 63 31 85 33 62 8z m7468 -158 l15 -37 73 7
c80 7 76 -8 -5 -19 -28 -4 -48 -12 -48 -19 0 -7 13 -33 29 -57 17 -24 29 -45
27 -46 -2 -2 -37 12 -78 32 -88 40 -143 54 -216 55 -33 0 -51 4 -47 10 3 6 26
10 50 10 24 0 46 4 49 8 3 5 33 10 68 11 35 1 67 6 72 11 5 5 2 22 -7 39 -9
17 -11 31 -6 31 5 0 16 -16 24 -36z m155 -300 c8 -9 24 -20 37 -25 23 -9 32
-29 13 -29 -6 0 -24 6 -39 14 -73 38 -297 64 -324 37 -15 -15 8 -39 51 -51 41
-11 79 -4 106 19 16 13 18 14 14 1 -15 -47 -131 -52 -175 -7 -15 15 -23 32
-20 41 7 17 66 36 112 36 28 0 146 -22 185 -35 16 -5 17 -1 11 27 -4 18 -5 40
-2 48 3 9 8 -1 11 -22 4 -20 13 -44 20 -54z m-6960 -206 c56 -145 63 -188 57
-348 -5 -118 -38 -364 -51 -378 -2 -1 -16 19 -31 45 -15 26 -50 79 -77 116
-37 52 -47 72 -38 81 8 10 -1 22 -35 51 -54 43 -80 90 -101 181 -15 66 -18
238 -4 229 4 -3 14 2 21 11 7 9 34 26 61 40 l48 24 6 -27 c10 -46 14 -50 9 -8
-4 35 -1 42 28 66 29 24 33 25 54 12 13 -9 35 -47 53 -95z m7000 52 c0 -5 -4
-10 -10 -10 -5 0 -10 5 -10 10 0 6 5 10 10 10 6 0 10 -4 10 -10z m-202 -115
c29 -13 50 -20 47 -14 -4 5 -1 16 5 24 22 27 91 -24 90 -67 -1 -7 -7 -1 -15
13 -7 14 -26 31 -40 37 -26 12 -27 12 -20 -18 l7 -31 -59 30 c-68 35 -103 46
-103 33 0 -14 32 -38 65 -50 l30 -10 -27 -1 c-29 -1 -88 42 -88 65 0 22 48 17
108 -11z m190 -245 c43 -36 29 -45 -22 -15 -75 44 -191 76 -259 73 -34 -2 -62
-7 -61 -13 0 -5 15 -20 34 -32 35 -24 89 -30 121 -13 12 7 19 7 19 1 0 -18
-67 -30 -107 -19 -79 21 -109 84 -48 100 37 10 139 -6 208 -32 29 -11 55 -20
60 -20 4 0 8 19 8 43 l2 42 7 -44 c5 -33 15 -52 38 -71z m2 -140 c0 -5 -7 -7
-15 -4 -8 4 -12 10 -9 15 6 11 24 2 24 -11z m-133 -96 c73 -16 133 -33 133
-37 0 -10 -66 -1 -182 24 -48 10 -89 19 -92 19 -2 0 -1 -11 2 -25 7 -42 -40
-29 -64 17 -28 53 -32 53 203 2z m-28 -153 c33 -23 45 -45 37 -66 -9 -24 -86
-16 -150 15 -56 26 -58 49 -6 67 41 14 85 8 119 -16z m-7212 -37 c-3 -3 -12
-4 -19 -1 -8 3 -5 6 6 6 11 1 17 -2 13 -5z m-421 -235 c-80 -245 -89 -294 -83
-459 3 -99 12 -178 28 -250 l23 -104 21 69 c28 91 73 183 131 270 26 39 64
102 85 140 21 39 39 67 39 63 0 -17 -29 -70 -93 -172 -89 -140 -143 -255 -159
-339 -7 -37 -15 -67 -19 -67 -9 0 -57 203 -69 293 -25 189 -2 327 102 615 47
129 43 90 -6 -59z m758 -25 c9 -26 14 -49 12 -51 -2 -3 -12 19 -21 46 -10 31
-37 74 -67 109 l-50 57 55 -57 c35 -36 60 -73 71 -104z m-467 -26 c-2 -24 -4
-5 -4 42 0 47 2 66 4 43 2 -24 2 -62 0 -85z m7239 65 c26 -18 64 -91 64 -121
0 -9 -14 6 -30 35 -48 83 -103 108 -130 57 -16 -30 -7 -52 31 -71 22 -11 22
-12 4 -18 -64 -21 -88 -52 -65 -80 22 -27 104 -11 147 28 13 11 25 18 28 15
10 -10 -69 -68 -107 -78 -41 -12 -74 -3 -101 28 -22 24 -12 52 27 77 23 15 23
18 9 45 -17 35 -10 68 21 93 24 20 64 16 102 -10z m-7249 -155 c-3 -7 -5 -2
-5 12 0 14 2 19 5 13 2 -7 2 -19 0 -25z m-10 -50 c-3 -8 -6 -5 -6 6 -1 11 2
17 5 13 3 -3 4 -12 1 -19z m211 -12 c13 -11 39 -21 58 -23 112 -7 440 -244
529 -382 57 -87 147 -312 132 -327 -3 -3 -27 11 -53 31 -62 47 -157 95 -267
134 -99 35 -151 67 -218 138 -77 79 -157 221 -178 314 -15 65 2 61 79 -17 44
-45 121 -106 185 -148 132 -87 135 -89 135 -82 0 4 -52 40 -115 81 -131 85
-186 133 -276 243 -60 71 -64 86 -11 38z m-387 -53 c-12 -20 -14 -14 -5 12 4
9 9 14 11 11 3 -2 0 -13 -6 -23z m-40 -89 c-16 -33 -30 -56 -31 -52 0 11 53
118 58 114 2 -2 -10 -30 -27 -62z m356 14 c-4 -14 0 -30 12 -43 28 -30 43 -89
44 -168 2 -107 -16 -155 -85 -234 -32 -37 -68 -85 -79 -106 -11 -22 -22 -37
-25 -35 -2 3 -13 74 -25 159 -21 159 -19 220 8 272 17 34 80 105 104 118 17 8
18 5 14 -43 -2 -29 -2 -42 1 -28 3 14 9 49 15 78 6 28 13 52 16 52 3 0 3 -10
0 -22z m7080 -109 c7 -6 13 -18 13 -26 0 -11 -7 -13 -27 -8 -40 9 -75 34 -67
46 7 13 61 4 81 -12z m-72 -109 c34 -15 46 -25 43 -37 -3 -13 -12 -17 -32 -16
-27 2 -27 1 -12 -16 17 -19 21 -41 7 -41 -8 0 -112 40 -120 47 -2 2 -2 6 1 9
4 3 19 -1 35 -9 15 -8 39 -18 53 -22 25 -7 25 -7 -5 25 l-30 32 48 -7 c26 -4
47 -5 47 -1 0 3 -21 17 -47 30 -58 30 -52 33 12 6z m-231 -27 c-4 -16 -11 -38
-15 -51 -5 -13 -9 -28 -9 -33 0 -6 64 -41 142 -79 137 -67 175 -90 151 -90
-16 0 -142 60 -230 108 l-71 40 -12 -49 c-13 -55 -7 -111 15 -129 17 -14 35
-5 35 17 0 9 3 14 6 10 12 -12 -8 -47 -26 -47 -30 0 -52 43 -50 97 4 106 5
118 17 125 6 5 17 30 24 58 7 27 17 50 21 50 5 0 5 -12 2 -27z m-101 -403
c-20 -8 -63 -64 -63 -81 0 -8 153 -109 164 -109 4 0 4 5 0 12 -4 7 -3 8 4 4 7
-4 12 -11 12 -17 0 -21 -40 -6 -111 40 l-74 49 -12 -36 c-17 -55 -15 -69 10
-77 21 -8 21 -8 -5 -12 -37 -6 -36 -32 1 -72 56 -60 79 -25 46 69 -8 24 -13
45 -11 47 13 13 52 -118 43 -142 -10 -24 -51 -18 -79 13 -37 39 -50 69 -40 90
5 9 14 43 21 75 12 55 12 58 -11 77 -13 11 -18 19 -12 20 5 0 16 -6 23 -12 11
-11 15 -9 25 6 28 46 49 66 69 65 l22 0 -22 -9z m-6238 -10 c3 -5 1 -10 -4
-10 -15 0 -14 -36 3 -68 30 -57 175 -177 361 -297 189 -122 313 -164 545 -184
63 -5 116 -8 118 -7 1 2 -24 19 -55 39 -71 43 -165 134 -260 248 -40 48 -96
104 -125 124 -68 49 -82 63 -39 39 39 -22 130 -110 242 -235 83 -91 154 -151
240 -200 l54 -30 -123 6 c-298 14 -430 62 -699 252 -106 76 -245 200 -265 237
-20 36 -27 96 -12 96 7 0 16 -4 19 -10z m169 -79 c151 -74 248 -135 397 -251
167 -131 131 -113 -71 35 -165 120 -209 147 -359 221 -69 35 -122 63 -117 64
6 0 73 -31 150 -69z m143 63 c-3 -3 -12 -4 -19 -1 -8 3 -5 6 6 6 11 1 17 -2
13 -5z m103 -34 c8 -5 11 -10 5 -10 -5 0 -17 5 -25 10 -8 5 -10 10 -5 10 6 0
17 -5 25 -10z m-372 -142 c69 -105 182 -256 231 -310 14 -16 22 -28 18 -28 -3
0 26 -33 65 -72 39 -40 96 -99 127 -132 72 -75 269 -250 342 -303 31 -23 62
-47 70 -55 8 -7 47 -35 87 -62 65 -45 86 -66 64 -66 -9 0 -171 112 -233 161
-44 35 -59 38 -33 7 l19 -23 -23 19 c-12 11 -20 21 -18 23 4 4 -54 59 -172
164 -28 25 -55 43 -58 40 -4 -3 -4 -1 -1 5 3 6 -14 30 -38 54 -42 41 -43 42
-48 19 -4 -21 -4 -21 -6 4 -1 22 -23 53 -87 120 -48 51 -92 90 -98 89 -6 -2
-8 -1 -4 3 4 4 -4 17 -17 30 -14 12 -22 24 -19 27 3 4 1 9 -4 12 -6 3 -11 -35
-12 -97 -1 -56 -6 -136 -10 -177 -6 -51 -7 -21 -3 93 3 100 1 167 -4 167 -18
0 -52 -45 -80 -105 -44 -97 -43 -162 6 -353 57 -225 52 -216 84 -135 26 67 96
205 97 190 0 -4 -20 -47 -45 -96 -24 -49 -49 -110 -56 -135 -20 -80 -27 -68
-90 159 -55 198 -57 271 -11 366 18 37 48 81 68 98 41 36 40 49 -9 114 -81
107 -129 180 -142 217 -8 22 -12 40 -9 40 2 0 25 -32 52 -72z m6099 -228 c-3
-32 -31 -29 -69 8 -35 32 -38 65 -5 60 17 -2 22 -10 22 -32 0 -27 27 -57 40
-44 3 3 -1 25 -9 49 -21 60 -19 73 5 24 10 -22 18 -51 16 -65z m-213 38 c13
-18 31 -50 39 -70 17 -41 56 -72 80 -62 34 13 137 -61 121 -87 -9 -16 -29 -10
-88 26 -55 33 -60 34 -73 18 -13 -17 -14 -16 -8 4 5 18 -7 35 -64 90 -47 45
-71 76 -71 91 0 33 35 28 64 -10z m119 -108 c-9 -11 -19 -17 -21 -15 -6 6 18
35 29 35 5 0 1 -9 -8 -20z m-153 -87 c61 -68 86 -85 78 -57 -3 11 -13 36 -22
57 -9 20 -12 37 -7 37 11 0 50 -102 44 -117 -10 -25 -31 -12 -97 58 -67 70
-68 70 -89 52 l-22 -18 19 23 c11 12 25 22 32 22 6 0 36 -26 64 -57z m-5453
12 c90 47 510 -41 653 -137 84 -56 249 -222 225 -226 -25 -6 172 -72 213 -72
53 0 31 -17 -133 -101 -138 -70 -149 -74 -213 -74 -52 0 -80 6 -126 28 -32 15
-56 30 -53 34 4 3 73 23 154 44 82 21 141 38 132 38 -9 1 -78 -15 -153 -34
-75 -19 -149 -34 -164 -34 -21 1 -23 3 -6 6 12 2 26 15 32 27 6 13 27 36 46
51 39 29 153 75 189 75 21 1 21 1 3 12 -13 7 -73 9 -191 5 -184 -6 -235 0
-323 36 -114 46 -289 186 -311 248 -8 24 -8 30 2 25 83 -37 191 -75 227 -80
39 -5 36 -3 -20 13 -78 22 -149 50 -230 91 -69 35 -78 45 -20 25 34 -12 43
-12 67 0z m5206 -32 c58 -61 83 -161 43 -176 -19 -7 -56 20 -55 41 0 13 3 12
11 -5 6 -13 20 -23 31 -23 17 0 19 5 15 45 -6 52 -39 106 -82 131 -28 16 -30
16 -43 -1 -40 -56 27 -186 169 -328 26 -26 48 -50 48 -53 0 -18 -218 156 -295
235 -63 66 -27 47 67 -34 48 -41 90 -75 93 -75 4 0 -9 22 -29 49 -67 91 -90
166 -66 212 17 30 52 23 93 -18z m167 2 c58 -30 105 -119 80 -150 -18 -21 -34
-19 -68 10 -16 13 -31 22 -34 20 -3 -3 -5 8 -5 24 0 19 5 28 15 27 8 0 17 5
20 13 3 10 0 12 -12 8 -10 -4 -15 -3 -11 3 3 6 14 10 23 10 15 0 15 1 0 17
-10 9 -31 16 -48 16 -16 0 -30 4 -30 9 0 13 38 9 70 -7z m-5513 -212 c-3 -10
-5 -2 -5 17 0 19 2 27 5 18 2 -10 2 -26 0 -35z m171 6 c11 0 13 -2 4 -6 -18
-7 33 -98 164 -293 93 -141 135 -215 133 -237 0 -4 -9 11 -19 35 -11 23 -64
107 -119 186 -55 78 -120 179 -144 224 -33 63 -46 79 -55 70 -9 -9 -8 -4 0 15
7 14 15 22 16 17 2 -6 11 -10 20 -11z m-301 -51 c-3 -8 -6 -5 -6 6 -1 11 2 17
5 13 3 -3 4 -12 1 -19z m120 -10 c-3 -8 -6 -5 -6 6 -1 11 2 17 5 13 3 -3 4
-12 1 -19z m173 -193 c18 -49 72 -170 121 -267 79 -156 99 -187 166 -258 70
-75 198 -179 273 -223 l31 -19 -24 49 c-38 74 -76 205 -98 334 -10 64 -26 136
-34 160 -8 23 -13 44 -11 47 8 8 45 -130 57 -213 17 -119 55 -240 104 -333
l45 -83 -38 22 c-160 96 -326 242 -398 350 -106 160 -245 505 -243 604 2 50 2
49 9 -15 5 -36 23 -105 40 -155z m1497 88 c68 -32 168 -191 165 -262 -1 -35
-1 -35 11 9 17 60 59 115 115 147 l45 27 61 -31 c34 -17 90 -44 126 -59 96
-41 97 -43 77 -108 -19 -60 -92 -149 -153 -187 -19 -12 -33 -24 -30 -26 7 -7
101 63 124 91 26 33 54 45 120 52 39 4 67 2 82 -6 13 -7 25 -9 27 -4 2 5 57 8
124 6 67 -2 144 2 172 8 27 6 51 9 53 7 7 -7 -69 -88 -134 -143 -59 -51 -67
-55 -77 -39 -25 43 -117 155 -128 155 -6 0 5 -17 25 -37 52 -55 98 -123 98
-145 0 -11 -3 -18 -7 -16 -90 46 -116 46 -225 -4 l-67 -30 -41 32 c-50 39
-155 74 -182 59 -26 -14 -22 -19 11 -13 16 3 54 -1 84 -10 98 -28 181 -134
194 -247 5 -46 8 -49 34 -49 15 0 51 -5 79 -11 43 -9 54 -8 73 5 67 49 136 90
262 154 77 39 131 64 120 56 -11 -9 -54 -33 -95 -54 -41 -21 -113 -61 -159
-88 -81 -48 -83 -50 -61 -62 16 -8 45 -11 89 -6 95 9 133 22 190 64 52 40 276
270 269 278 -2 2 -20 -1 -39 -6 -19 -6 -77 -12 -129 -15 l-95 -4 85 9 c80 8
146 21 184 36 39 15 9 -30 -97 -144 -125 -135 -200 -197 -255 -211 -105 -27
-109 -29 -79 -30 15 -1 27 -4 27 -9 0 -9 -278 -4 -342 7 l-48 8 0 -73 c0 -65
-3 -75 -21 -85 -41 -21 -109 -5 -184 43 -38 25 -97 59 -130 76 -79 40 -158
104 -178 144 -9 18 -17 26 -17 16 0 -9 11 -30 25 -46 l25 -30 -56 -42 c-54
-41 -116 -124 -150 -200 -16 -36 -18 -37 -56 -30 -51 10 -83 41 -108 107 -37
100 -23 197 37 255 36 33 43 36 114 40 62 4 86 11 130 36 66 39 58 42 -13 5
-68 -36 -136 -40 -293 -18 -116 16 -154 16 -212 -1 -19 -5 -23 -1 -28 28 -4
19 -2 54 5 76 l11 42 58 0 c68 0 107 12 175 54 27 16 77 40 110 52 34 13 51
23 39 23 -12 1 -74 -26 -139 -59 -106 -55 -123 -60 -180 -60 -40 0 -84 8 -121
21 -62 24 -149 75 -172 102 -7 10 -23 17 -35 16 -20 0 -20 -1 -3 -12 115 -74
148 -93 196 -112 31 -13 56 -29 56 -37 0 -19 -9 -16 -130 53 -60 34 -141 79
-180 101 -38 22 -85 49 -104 61 -23 13 -32 16 -26 6 28 -48 49 -68 75 -74 85
-19 349 -343 400 -491 29 -83 50 -213 50 -306 l0 -80 -44 60 c-46 63 -126 134
-224 201 -142 96 -224 240 -254 445 -11 76 -6 156 10 156 4 -1 25 -37 46 -81
37 -74 106 -167 207 -276 22 -24 43 -43 45 -41 2 3 -28 40 -67 84 -111 123
-144 171 -203 294 -63 134 -75 166 -55 154 8 -4 49 -29 92 -56 63 -39 81 -46
97 -38 10 5 58 11 107 12 l88 2 -82 3 c-88 4 -96 10 -68 49 35 51 235 99 380
92 68 -4 90 -10 150 -41 39 -20 97 -58 130 -85 l59 -47 -39 -6 c-33 -5 -35 -6
-11 -8 45 -2 92 -45 127 -116 35 -72 43 -121 23 -150 -22 -31 -16 -40 7 -11
17 22 27 26 49 21 23 -5 32 -1 47 21 10 15 32 41 48 58 27 27 27 29 5 15 -14
-9 -34 -30 -45 -47 -22 -35 -38 -44 -59 -36 -17 6 -36 56 -36 90 0 13 -3 24
-8 24 -4 0 -6 21 -5 48 l1 47 -6 -45 -7 -45 -13 31 c-8 18 -27 44 -43 60 -17
16 -25 30 -19 34 15 9 -132 123 -205 159 -53 26 -64 36 -75 70 -15 45 -10 55
32 77 18 9 46 32 63 50 37 38 52 41 102 17z m3283 -226 c4 -5 5 3 3 17 -7 34
7 33 42 -4 38 -39 49 -38 42 5 -3 19 -2 35 4 35 5 0 9 -6 9 -14 0 -7 3 -28 6
-45 8 -40 -10 -41 -54 -2 -35 33 -40 26 -16 -20 33 -64 5 -48 -57 32 -36 46
-74 96 -83 111 l-18 27 -39 -31 c-23 -18 -37 -38 -34 -45 2 -8 43 -72 90 -144
47 -71 85 -132 85 -135 0 -2 -7 -4 -15 -4 -8 0 -15 4 -15 9 0 5 -16 33 -36 62
-20 30 -57 89 -81 132 l-46 78 -29 -28 c-39 -37 -58 -74 -58 -114 0 -27 3 -31
21 -26 16 4 19 3 11 -5 -13 -13 -40 -4 -49 18 -10 27 16 90 52 125 19 19 35
42 35 52 0 10 5 15 10 12 6 -4 29 9 52 28 l41 34 60 -76 c33 -42 63 -80 67
-84z m200 91 c0 -26 -5 -50 -11 -53 -19 -12 -79 60 -79 95 0 15 36 12 49 -4
10 -11 8 -16 -6 -24 -17 -10 -17 -11 1 -31 31 -34 38 -25 31 37 -5 41 -3 53 4
42 6 -8 11 -36 11 -62z m-4602 -37 c33 -58 21 -51 -17 11 -18 28 -26 47 -19
40 8 -6 24 -29 36 -51z m3624 -179 c9 -9 8 -12 -4 -12 -58 0 -231 -110 -365
-232 -80 -73 -153 -128 -153 -115 0 2 17 16 38 29 20 14 77 62 126 108 103 93
153 130 250 181 l69 37 -89 7 c-118 10 -271 0 -365 -24 -136 -35 -424 -177
-558 -276 -43 -32 -68 -59 -81 -88 -11 -23 -20 -35 -20 -27 0 8 9 29 19 47 67
109 489 336 693 373 75 13 425 7 440 -8z m-3663 -102 c0 -8 -7 1 -14 20 -18
46 -17 64 0 25 8 -16 14 -37 14 -45z m3988 -8 c-19 -30 -498 -223 -551 -221
-29 1 -28 2 14 16 140 47 228 83 404 165 94 43 144 58 133 40z m-757 -16 c0
-3 -15 -14 -32 -26 l-33 -22 30 26 c31 27 35 29 35 22z m-3213 -48 c-3 -8 -6
-5 -6 6 -1 11 2 17 5 13 3 -3 4 -12 1 -19z m2340 6 c-3 -3 -12 -4 -19 -1 -8 3
-5 6 6 6 11 1 17 -2 13 -5z m-47 -14 c-8 -5 -19 -10 -25 -10 -5 0 -3 5 5 10 8
5 20 10 25 10 6 0 3 -5 -5 -10z m845 0 c-16 -25 -146 -84 -295 -133 -194 -64
-320 -115 -320 -130 0 -6 -3 -7 -7 -4 -3 4 -18 0 -32 -9 l-26 -15 25 22 c40
35 153 83 315 134 190 59 239 79 295 115 51 33 53 34 45 20z m-1138 -22 c12
-10 7 -16 -30 -35 -69 -34 -184 -64 -195 -50 -24 32 -22 37 28 62 87 44 162
53 197 23z m253 7 c0 -2 -10 -9 -22 -15 -22 -11 -22 -10 -4 4 21 17 26 19 26
11z m-110 -78 c0 -2 -12 -14 -27 -28 l-28 -24 24 28 c23 25 31 32 31 24z
m-1217 -28 c105 -16 104 -15 74 -47 -38 -40 -57 -94 -57 -164 l0 -62 -40 39
c-42 41 -53 66 -69 151 -10 53 -5 94 11 94 5 0 42 -5 81 -11z m2593 -54 c20
-8 58 -31 85 -51 27 -20 72 -48 100 -64 28 -15 47 -30 43 -33 -20 -11 -298
-67 -337 -67 -50 0 -129 35 -180 80 -43 37 -46 49 -14 51 12 1 -1 5 -28 9 -28
4 -61 11 -74 15 -14 4 -21 3 -18 -2 10 -17 -295 -72 -408 -74 l-60 -2 69 -8
c133 -17 260 -48 321 -78 69 -34 163 -104 245 -181 45 -42 51 -50 30 -46 -75
17 -181 17 -280 0 -219 -36 -296 -28 -445 46 -116 58 -244 165 -223 186 3 2
45 -7 93 -21 48 -14 97 -25 109 -24 11 0 -13 9 -55 19 -70 17 -273 90 -267 95
2 1 36 6 77 9 67 7 73 6 62 -8 -8 -9 -23 -16 -35 -17 -11 0 -15 -3 -8 -6 7 -3
28 2 46 11 19 9 40 16 48 16 8 0 18 3 21 7 4 4 32 5 63 4 30 -1 85 1 122 5 64
8 65 9 27 14 -29 5 -18 7 40 7 44 0 121 8 170 18 50 9 108 19 130 20 22 2 77
13 123 24 46 12 87 19 93 15 5 -3 16 -1 23 5 43 36 229 53 292 26z m-411 -15
c-3 -5 -12 -10 -18 -10 -7 0 -6 4 3 10 19 12 23 12 15 0z m-65 -30 c-8 -5 -19
-10 -25 -10 -5 0 -3 5 5 10 8 5 20 10 25 10 6 0 3 -5 -5 -10z m-1675 -70 c3
-5 1 -10 -4 -10 -6 0 -11 5 -11 10 0 6 2 10 4 10 3 0 8 -4 11 -10z m71 -103
c93 -80 364 -240 492 -292 103 -42 389 -78 472 -60 l32 7 -53 30 c-79 45 -121
79 -249 203 -63 61 -132 121 -152 134 -46 28 -51 39 -6 14 17 -10 87 -71 155
-135 131 -125 207 -182 303 -227 60 -28 60 -29 29 -35 -17 -3 -82 -6 -143 -6
-257 1 -396 43 -657 200 -166 100 -299 208 -299 242 0 7 8 1 18 -14 10 -16 36
-43 58 -61z m-220 -164 c-3 -4 -62 22 -74 32 -2 2 6 22 18 46 l22 42 20 -58
c10 -31 17 -59 14 -62z m692 67 c34 -22 62 -42 62 -45 0 -4 -13 3 -29 14 -16
12 -49 32 -73 46 -24 14 -38 25 -32 25 6 0 39 -18 72 -40z m93 -67 c13 -16 12
-17 -3 -4 -10 7 -18 15 -18 17 0 8 8 3 21 -13z m44 -33 c10 -11 16 -20 13 -20
-3 0 -13 9 -23 20 -10 11 -16 20 -13 20 3 0 13 -9 23 -20z"/>
<path d="M3518 8976 c41 -47 82 -127 83 -163 1 -25 2 -24 11 9 5 21 28 56 50
79 31 32 37 43 27 50 -26 17 -119 49 -162 56 l-42 6 33 -37z"/>
<path d="M3593 8735 c0 -27 2 -38 4 -22 2 15 2 37 0 50 -2 12 -4 0 -4 -28z"/>
<path d="M3925 8744 c-18 -35 -56 -72 -105 -106 -14 -9 -20 -17 -14 -17 6 -1
39 24 73 54 39 35 73 56 97 61 l36 7 -29 18 c-15 10 -30 19 -33 19 -3 0 -14
-16 -25 -36z"/>
<path d="M3310 8489 c30 -6 57 -13 59 -15 11 -10 -38 -34 -74 -35 l-40 -2 37
-4 c35 -4 37 -6 28 -29 -6 -14 -10 -35 -9 -47 1 -24 4 -18 13 26 4 15 23 45
42 67 36 40 36 40 12 40 -14 0 -47 2 -74 5 l-49 4 55 -10z"/>
<path d="M3128 8433 c12 -2 32 -2 45 0 12 2 2 4 -23 4 -25 0 -35 -2 -22 -4z"/>
<path d="M3053 8423 c9 -2 25 -2 35 0 9 3 1 5 -18 5 -19 0 -27 -2 -17 -5z"/>
<path d="M2983 8413 c9 -2 25 -2 35 0 9 3 1 5 -18 5 -19 0 -27 -2 -17 -5z"/>
<path d="M2923 8403 c9 -2 23 -2 30 0 6 3 -1 5 -18 5 -16 0 -22 -2 -12 -5z"/>
<path d="M5070 8860 c8 -5 28 -10 44 -10 39 0 30 6 -19 13 -27 4 -35 3 -25 -3z"/>
<path d="M5168 8843 c12 -2 30 -2 40 0 9 3 -1 5 -23 4 -22 0 -30 -2 -17 -4z"/>
<path d="M5243 8833 c9 -2 25 -2 35 0 9 3 1 5 -18 5 -19 0 -27 -2 -17 -5z"/>
<path d="M5920 8626 c0 -2 21 -19 48 -38 44 -32 51 -34 102 -28 l55 5 -70 19
c-38 10 -85 24 -102 32 -18 7 -33 12 -33 10z"/>
<path d="M6243 8373 c9 -2 25 -2 35 0 9 3 1 5 -18 5 -19 0 -27 -2 -17 -5z"/>
<path d="M2950 8037 c-30 -23 -74 -55 -98 -71 -51 -35 -60 -46 -30 -39 32 8
152 98 172 128 9 14 15 25 14 25 -2 0 -28 -19 -58 -43z"/>
<path d="M2734 7874 c-18 -14 -18 -15 4 -4 12 6 22 13 22 15 0 8 -5 6 -26 -11z"/>
<path d="M7455 7390 c19 -8 93 -14 84 -6 -2 2 -26 6 -54 9 -32 4 -43 3 -30 -3z"/>
<path d="M7568 7373 c12 -2 30 -2 40 0 9 3 -1 5 -23 4 -22 0 -30 -2 -17 -4z"/>
<path d="M1060 6046 c0 -2 29 -18 64 -35 36 -17 76 -45 90 -62 14 -17 26 -27
26 -22 -1 26 -79 87 -138 107 -23 8 -42 14 -42 12z"/>
<path d="M1261 5934 c0 -11 3 -14 6 -6 3 7 2 16 -1 19 -3 4 -6 -2 -5 -13z"/>
<path d="M1903 5650 c0 -25 2 -35 4 -22 2 12 2 32 0 45 -2 12 -4 2 -4 -23z"/>
<path d="M1682 5553 c-2 -47 -6 -64 -19 -72 -10 -6 -13 -11 -7 -11 6 0 17 7
24 15 7 8 16 12 21 9 5 -3 9 0 9 5 0 6 -4 11 -9 11 -6 0 -12 24 -14 53 l-3 52
-2 -62z"/>
<path d="M1764 5456 c17 -18 37 -41 44 -50 7 -9 20 -16 30 -15 13 0 12 2 -4 9
-12 5 -31 24 -43 43 -18 29 -39 47 -56 47 -2 0 11 -15 29 -34z"/>
<path d="M2068 5353 c12 -2 30 -2 40 0 9 3 -1 5 -23 4 -22 0 -30 -2 -17 -4z"/>
<path d="M1210 5335 c0 -5 5 -17 10 -25 5 -8 10 -10 10 -5 0 6 -5 17 -10 25
-5 8 -10 11 -10 5z"/>
<path d="M1413 5145 c0 -33 2 -45 4 -27 2 18 2 45 0 60 -2 15 -4 0 -4 -33z"/>
<path d="M1260 5161 c0 -6 4 -13 10 -16 6 -3 7 1 4 9 -7 18 -14 21 -14 7z"/>
<path d="M1295 5110 c10 -11 20 -20 23 -20 3 0 -3 9 -13 20 -10 11 -20 20 -23
20 -3 0 3 -9 13 -20z"/>
<path d="M988 5033 c7 -3 16 -2 19 1 4 3 -2 6 -13 5 -11 0 -14 -3 -6 -6z"/>
<path d="M1038 5023 c7 -3 16 -2 19 1 4 3 -2 6 -13 5 -11 0 -14 -3 -6 -6z"/>
<path d="M1330 4976 c0 -2 8 -10 18 -17 15 -13 16 -12 3 4 -13 16 -21 21 -21
13z"/>
<path d="M1480 4950 c-9 -6 -10 -10 -3 -10 6 0 15 5 18 10 8 12 4 12 -15 0z"/>
<path d="M990 4883 c-23 -27 -46 -57 -52 -68 -5 -11 1 -6 14 10 13 17 38 47
57 68 18 20 31 37 28 37 -3 0 -24 -21 -47 -47z"/>
<path d="M1332 4820 c0 -19 2 -27 5 -17 2 9 2 25 0 35 -3 9 -5 1 -5 -18z"/>
<path d="M1730 3391 c0 -5 12 -17 28 -26 l27 -18 -24 27 c-26 28 -31 31 -31
17z"/>
<path d="M1713 3265 c0 -27 2 -38 4 -22 2 15 2 37 0 50 -2 12 -4 0 -4 -28z"/>
<path d="M1725 3170 c6 -48 82 -278 96 -295 10 -10 -6 44 -41 140 -12 33 -30
92 -41 130 -16 56 -18 61 -14 25z"/>
<path d="M8260 6853 c0 -12 9 -27 21 -33 18 -10 19 -10 10 7 -26 45 -31 49
-31 26z"/>
<path d="M1943 6795 c0 -22 2 -30 4 -17 2 12 2 30 0 40 -3 9 -5 -1 -4 -23z"/>
<path d="M1933 6675 c0 -38 2 -53 4 -32 2 20 2 52 0 70 -2 17 -4 1 -4 -38z"/>
<path d="M1943 6565 c0 -22 2 -30 4 -17 2 12 2 30 0 40 -3 9 -5 -1 -4 -23z"/>
<path d="M1952 6495 c0 -16 2 -22 5 -12 2 9 2 23 0 30 -3 6 -5 -1 -5 -18z"/>
<path d="M1962 6435 c0 -16 2 -22 5 -12 2 9 2 23 0 30 -3 6 -5 -1 -5 -18z"/>
<path d="M1972 6375 c0 -16 2 -22 5 -12 2 9 2 23 0 30 -3 6 -5 -1 -5 -18z"/>
<path d="M4752 6020 c-108 -46 -170 -189 -159 -369 3 -56 14 -110 30 -154 27
-74 115 -226 134 -234 17 -7 84 43 161 120 118 116 163 258 132 419 -26 140
-102 220 -214 225 -33 2 -72 -2 -84 -7z"/>
<path d="M4607 5092 c-91 -75 -149 -169 -173 -281 -27 -127 -12 -277 37 -373
32 -62 105 -135 168 -165 50 -25 67 -28 151 -27 73 1 108 6 153 23 67 26 159
107 207 181 l32 50 -169 197 c-93 109 -213 251 -265 315 l-96 117 -45 -37z"/>
<path d="M8665 5560 c-33 -4 -52 -7 -42 -8 16 -2 91 -27 140 -47 16 -7 15 -4
-4 29 -11 20 -24 35 -27 34 -4 -1 -34 -4 -67 -8z"/>
<path d="M1802 5060 c0 -19 2 -27 5 -17 2 9 2 25 0 35 -3 9 -5 1 -5 -18z"/>
<path d="M1813 4965 c0 -27 2 -38 4 -22 2 15 2 37 0 50 -2 12 -4 0 -4 -28z"/>
<path d="M1822 4880 c0 -19 2 -27 5 -17 2 9 2 25 0 35 -3 9 -5 1 -5 -18z"/>
<path d="M8590 4582 c0 -12 39 -46 45 -41 6 7 -24 49 -36 49 -5 0 -9 -4 -9 -8z"/>
<path d="M8626 4417 c-16 -12 -13 -15 31 -34 84 -38 134 -37 120 1 -14 37
-116 59 -151 33z"/>
<path d="M1493 3640 c0 -25 2 -35 4 -22 2 12 2 32 0 45 -2 12 -4 2 -4 -23z"/>
<path d="M1477 3523 c-3 -27 -9 -57 -13 -67 -5 -13 -4 -17 4 -12 11 6 28 113
20 122 -3 2 -8 -17 -11 -43z"/>
<path d="M8550 3715 c0 -6 56 -35 67 -35 14 1 -39 40 -53 40 -8 0 -14 -2 -14
-5z"/>
<path d="M8032 2791 c4 -13 18 -16 19 -4 0 4 -5 9 -11 12 -7 2 -11 -2 -8 -8z"/>
<path d="M7850 2795 c0 -16 43 -76 61 -85 26 -14 23 -2 -9 44 -25 36 -52 57
-52 41z"/>
<path d="M8069 2595 c30 -19 57 -32 60 -29 12 12 -60 64 -87 64 -24 0 -22 -4
27 -35z"/>
<path d="M2683 2453 c9 -2 23 -2 30 0 6 3 -1 5 -18 5 -16 0 -22 -2 -12 -5z"/>
<path d="M2743 2443 c9 -2 25 -2 35 0 9 3 1 5 -18 5 -19 0 -27 -2 -17 -5z"/>
<path d="M2801 2436 c2 -2 20 -6 39 -10 25 -4 31 -3 20 4 -14 9 -69 15 -59 6z"/>
<path d="M3298 2133 c7 -3 16 -2 19 1 4 3 -2 6 -13 5 -11 0 -14 -3 -6 -6z"/>
<path d="M7630 2316 c0 -2 8 -10 18 -17 15 -13 16 -12 3 4 -13 16 -21 21 -21
13z"/>
<path d="M7808 2495 c-10 -13 -18 -28 -18 -34 0 -10 48 -51 60 -51 16 0 19 33
6 64 -19 45 -28 48 -48 21z"/>
<path d="M3738 1880 c-9 -6 -40 -17 -70 -25 -40 -12 -44 -14 -16 -11 34 4 134
44 113 45 -5 0 -17 -4 -27 -9z"/>
<path d="M4093 1845 c0 -22 2 -30 4 -17 2 12 2 30 0 40 -3 9 -5 -1 -4 -23z"/>
<path d="M3453 1853 c9 -2 25 -2 35 0 9 3 1 5 -18 5 -19 0 -27 -2 -17 -5z"/>
<path d="M3523 1843 c9 -2 23 -2 30 0 6 3 -1 5 -18 5 -16 0 -22 -2 -12 -5z"/>
<path d="M3578 1833 c6 -2 18 -2 25 0 6 3 1 5 -13 5 -14 0 -19 -2 -12 -5z"/>
<path d="M4820 1365 c-11 -13 -8 -15 20 -15 19 0 31 1 29 3 -2 1 -11 8 -20 15
-13 10 -19 9 -29 -3z"/>
<path d="M7346 2085 c4 -8 10 -12 15 -9 14 8 10 24 -6 24 -9 0 -12 -6 -9 -15z"/>
<path d="M5976 1434 c-17 -12 -17 -14 -4 -14 9 0 20 5 23 11 11 17 2 18 -19 3z"/>
<path d="M6113 1393 c37 -2 96 -2 130 0 34 2 4 3 -68 3 -71 0 -99 -1 -62 -3z"/>
<path d="M6318 1383 c7 -3 16 -2 19 1 4 3 -2 6 -13 5 -11 0 -14 -3 -6 -6z"/>
<path d="M5398 1213 c17 -2 47 -2 65 0 17 2 3 4 -33 4 -36 0 -50 -2 -32 -4z"/>
<path d="M5563 1203 c15 -2 37 -2 50 0 12 2 0 4 -28 4 -27 0 -38 -2 -22 -4z"/>
</g>
</svg>
